# xmcd CD database file
#
# Track frame offsets:
#	150
#	18190
#	32875
#	50777
#	68170
#	88507
#	107412
#	126910
#	143807
#	165587
#	181475
#
# Disc length: 2622 seconds
#
# Revision: 2
# Processed by: cddbd v1.5.2PL0 Copyright (c) Steve Scherf et al.
# Submitted via: CDex 1.70beta2
#
DISCID=910a3c0b
DTITLE=Wonderland - Is This...
DYEAR=1997
DGENRE=Hard Rock
TTITLE0=Dreamgirl
TTITLE1=Confused
TTITLE2=Hungry Eyes
TTITLE3=Lifewire
TTITLE4=Waiting
TTITLE5=Gambling Man
TTITLE6=Julia
TTITLE7=Lost City
TTITLE8=Run Away
TTITLE9=I Believe
TTITLE10=Bad Loser
EXTD=YEAR: 1997
EXTT0=
EXTT1=
EXTT2=
EXTT3=
EXTT4=
EXTT5=
EXTT6=
EXTT7=
EXTT8=
EXTT9=
EXTT10=
PLAYORDER=
